<?xml version="1.0" encoding="utf-8"?>
<!-- Generator: Adobe Illustrator 21.0.0, SVG Export Plug-In . SVG Version: 6.00 Build 0)  -->
<svg version="1.1" id="Layer_1" xmlns="http://www.w3.org/2000/svg" xmlns:xlink="http://www.w3.org/1999/xlink" x="0px" y="0px"
	 viewBox="0 0 187 44" enable-background="new 0 0 187 44" xml:space="preserve">
<g>
	<path fill="#231F20" d="M157.7,18.4c0.3,0,1.6,0,2.1,0c-3,3.5-9.1,11.3-11.4,14.4c-0.2,0-1.7,0-2.1,0l0.3-0.3
		C148.7,30,155.4,21.6,157.7,18.4z"/>
	<path fill="#231F20" d="M90.9,18.4c0.3,0,1.6,0,2.1,0c-3,3.5-9.1,11.3-11.4,14.4c-0.2,0-1.7,0-2.1,0l0.3-0.3
		C81.9,30,88.6,21.6,90.9,18.4z"/>
	<path fill="#231F20" d="M146.5,18.4c0.5,0,2.6,0,2.9,0c2.1,3,7.5,10.8,10.5,14.4c-0.8,0-2.8,0-2.9,0
		C155.7,30.7,148.8,21.3,146.5,18.4z"/>
	<path fill="#231F20" d="M164.8,32.8c-0.4,0-1.9,0-2.2,0V18.4c1,0.1,1.4,0.1,2.2,0V32.8z M163.7,15c-0.8,0-1.4-0.8-1.4-1.5
		c0-0.8,0.6-1.4,1.4-1.4c0.7,0,1.4,0.6,1.4,1.4C165.1,14.2,164.5,15,163.7,15z"/>
	<path fill="#231F20" d="M169,29.9c0.7,1.1,2.1,2.2,3.5,2.2c1.9,0,3-1.2,2.9-2.8c-0.2-4.2-7.1-1.3-7.2-6.6c0-2.9,2.2-4.5,4.9-4.5
		c1.6,0,3.4,0.7,3.4,0.7c-0.3,0.8-0.8,2.2-0.8,2.2c-0.6-1.1-1.6-2-2.7-2c-1.5,0-2.7,0.9-2.7,2.5c0,3.9,7.4,2,7.3,6.8
		c0,2.6-2,4.8-5.4,4.6c-1.6-0.1-4-1-4-1C168.5,31.3,169,29.9,169,29.9z"/>
	<path fill="#231F20" d="M135.2,24.6c0.2-2.5,1.4-5.2,4.2-5.2c3,0,3.7,2.6,3.8,5.2C143.2,24.6,135.2,24.6,135.2,24.6z M145.5,25.8
		c0.3-5-2.8-7.4-6.1-7.4c-4.5,0-6.9,3.2-6.9,7.4c0,4.7,2.9,7.4,7.1,7.4c1.8,0,3.7-0.7,5.2-1.8v-1.5c-0.8,0.8-2.4,2.1-4.4,2.1
		c-3.6,0-5.4-2.8-5.2-6.1L145.5,25.8z"/>
	<path fill="#231F20" d="M79.7,18.4c0.5,0,2.6,0,2.9,0c2.1,3,7.5,10.8,10.5,14.4c-0.8,0-2.8,0-2.9,0C88.9,30.7,82,21.3,79.7,18.4z"
		/>
	<path fill="#231F20" d="M98.1,32.8c-0.4,0-1.9,0-2.2,0V18.4c1,0.1,1.4,0.1,2.2,0V32.8z M96.9,15c-0.8,0-1.4-0.8-1.4-1.5
		c0-0.8,0.6-1.4,1.4-1.4c0.7,0,1.4,0.6,1.4,1.4C98.4,14.2,97.7,15,96.9,15z"/>
	<path fill="#231F20" d="M102.3,29.9c0.7,1.1,2.1,2.2,3.5,2.2c1.9,0,3-1.2,2.9-2.8c-0.2-4.2-7.1-1.3-7.2-6.6c0-2.9,2.2-4.5,4.9-4.5
		c1.6,0,3.4,0.7,3.4,0.7c-0.3,0.8-0.8,2.2-0.8,2.2c-0.6-1.1-1.6-2-2.7-2c-1.5,0-2.7,0.9-2.7,2.5c0,3.9,7.4,2,7.3,6.8
		c0,2.6-2,4.8-5.4,4.6c-1.6-0.1-4-1-4-1C101.7,31.3,102.2,29.9,102.3,29.9z"/>
	<path fill="#231F20" d="M68.4,24.6c0.2-2.5,1.4-5.2,4.2-5.2c3,0,3.7,2.6,3.8,5.2C76.4,24.6,68.4,24.6,68.4,24.6z M78.8,25.8
		c0.3-5-2.8-7.4-6.1-7.4c-4.5,0-6.9,3.2-6.9,7.4c0,4.7,2.9,7.4,7.1,7.4c1.8,0,3.7-0.7,5.2-1.8v-1.5c-0.8,0.8-2.4,2.1-4.4,2.1
		c-3.6,0-5.4-2.8-5.2-6.1L78.8,25.8z"/>
	<path fill="#231F20" d="M56.9,31.1c2,0.1,6.6-0.1,8.3-0.3c0,0.4,0,1.6,0,1.9h-11V12.2c0.4,0,2.2,0,2.7,0L56.9,31.1z"/>
	<path fill="#231F20" d="M129.7,32.8h-0.9c-0.3-0.4-13.1-16.3-13.1-16.3v16.3c-0.3,0-0.6,0-0.8,0c-0.3,0-0.6,0-0.8,0V12.2h1.2
		l12.5,15.5l0.3,0.3V12.2c0.4,0,1.4,0,1.7,0L129.7,32.8L129.7,32.8z"/>
	<g>
		<path fill="#231F20" d="M179.8,20.4c0-1.2,0.9-2,2-2s2,0.8,2,2s-0.9,2-2,2C180.8,22.4,179.8,21.6,179.8,20.4z M181.9,22.1
			c0.9,0,1.6-0.7,1.6-1.7s-0.7-1.7-1.6-1.7c-0.9,0-1.6,0.7-1.6,1.7C180.2,21.4,181,22.1,181.9,22.1z M181.4,21.6H181v-2.3h0.9
			c0.5,0,0.8,0.2,0.8,0.7c0,0.4-0.3,0.6-0.6,0.6l0.7,1h-0.4l-0.6-1h-0.4V21.6z M181.9,20.3c0.3,0,0.6,0,0.6-0.4
			c0-0.3-0.3-0.3-0.5-0.3h-0.5v0.7C181.5,20.3,181.9,20.3,181.9,20.3z"/>
	</g>
	
		<radialGradient id="SVGID_1_" cx="-219.2859" cy="12.1771" r="14.1902" gradientTransform="matrix(1.7729 0 0 -1.7729 415.8844 30.6482)" gradientUnits="userSpaceOnUse">
		<stop  offset="2.247200e-02" style="stop-color:#FFF4F2"/>
		<stop  offset="8.447740e-02" style="stop-color:#FBC8CE"/>
		<stop  offset="0.1787" style="stop-color:#F68C9D"/>
		<stop  offset="0.2695" style="stop-color:#F25A73"/>
		<stop  offset="0.3543" style="stop-color:#EE3353"/>
		<stop  offset="0.4319" style="stop-color:#EC173C"/>
		<stop  offset="0.4998" style="stop-color:#EA062E"/>
		<stop  offset="0.5506" style="stop-color:#EA0029"/>
		<stop  offset="0.9663" style="stop-color:#EA0029"/>
	</radialGradient>
	<path display="none" fill="url(#SVGID_1_)" d="M39.6,22.3c0,9.5-7.7,17.3-17.3,17.3S5,31.9,5,22.3C5,12.8,12.7,5,22.3,5
		C31.8,5,39.6,12.8,39.6,22.3z"/>
	
		<radialGradient id="SVGID_2_" cx="-4140.542" cy="-1194.433" r="188.427" gradientTransform="matrix(0.2663 0 0 -0.2663 1129.184 -308.1973)" gradientUnits="userSpaceOnUse">
		<stop  offset="2.247200e-02" style="stop-color:#FFFFFF"/>
		<stop  offset="0.6404" style="stop-color:#EA0029"/>
		<stop  offset="0.8427" style="stop-color:#EA0029"/>
	</radialGradient>
	<path display="none" fill="url(#SVGID_2_)" d="M28.2,9.4c0.1,0,3.9-0.3,3.9-0.4c0-0.1-2.8,0-3.9,0c0.4-0.2,2.4-0.8,2.4-1
		s-3.3,0.9-3.7,1c-2.9-2.4-5.7-3.4-8.2-3.6c-1.3,0.3-2.6,0.8-3.8,1.3c2.9-0.6,6.2-0.4,9.7,1.6c-5.7-1.7-10.5-0.8-14.1,1.5
		c-2.1,2.1-3.8,4.6-4.6,7.5c3-6.2,9.7-10.4,18.5-8.4C11.8,8.5,6.3,17,5.2,24.9c0.4,2.7,1.4,5.2,3,7.4c-2.8-8.8,1.5-22,16.3-22.8
		c-15.9,3.2-17.2,20-12.3,26.8c1.4,1,3.1,1.9,4.8,2.4c-7.2-4.9-6.6-24.4,8-28.8c-12.9,6.2-12.5,25.5-4.3,29.6c0.5,0,1.1,0.1,1.6,0.1
		c1.1,0,2.1-0.1,3.1-0.3c-8.6-3-12.3-22.9,1.1-29.4l0.4,0.4c1.8,1.3,5.1,4.8,5.3,4.7c0.1-0.1-3-3.3-4.2-4.6c1.7,0.7,5,2.6,5.1,2.5
		s-3.3-2.1-5.1-3.1c1.8,0.3,5.1,1,5.2,0.9C33.3,10.5,30.2,9.8,28.2,9.4z"/>
</g>
<g>
	<path d="M39.5,14c0-1.1,0.9-2,2-2c1.1,0,2,0.9,2,2c0,1.2-0.9,2-2,2C40.4,16,39.5,15.2,39.5,14z M41.5,15.7c0.9,0,1.6-0.7,1.6-1.7
		c0-1-0.7-1.6-1.6-1.6c-0.9,0-1.6,0.7-1.6,1.6C39.9,15,40.6,15.7,41.5,15.7z M41.1,15.2h-0.4v-2.3h0.9c0.6,0,0.8,0.2,0.8,0.7
		c0,0.4-0.3,0.6-0.6,0.6l0.7,1H42l-0.6-1H41L41.1,15.2L41.1,15.2z M41.5,13.8c0.3,0,0.6,0,0.6-0.4c0-0.3-0.3-0.4-0.5-0.4h-0.5v0.7
		H41.5z"/>
</g>
<radialGradient id="SVGID_3_" cx="-170.8526" cy="-57.5631" r="14.3692" gradientTransform="matrix(1.7502 0 0 -1.7476 326.1823 -91.5625)" gradientUnits="userSpaceOnUse">
	<stop  offset="2.247200e-02" style="stop-color:#FFF2EE"/>
	<stop  offset="0.2508" style="stop-color:#F9826D"/>
	<stop  offset="0.406" style="stop-color:#F7270A"/>
	<stop  offset="0.5005" style="stop-color:#E62308"/>
	<stop  offset="0.9663" style="stop-color:#CF2109"/>
</radialGradient>
<ellipse fill="url(#SVGID_3_)" cx="22.3" cy="22.3" rx="17.3" ry="17.3"/>
<radialGradient id="SVGID_4_" cx="-4446.1089" cy="-757.7617" r="190.8043" gradientTransform="matrix(0.2629 0 0 -0.2625 1195.4591 -189.0607)" gradientUnits="userSpaceOnUse">
	<stop  offset="2.247200e-02" style="stop-color:#FDE6DF"/>
	<stop  offset="0.6404" style="stop-color:#F84A31"/>
	<stop  offset="0.8427" style="stop-color:#CF2109"/>
</radialGradient>
<path fill="url(#SVGID_4_)" d="M28.2,9.4c0.1-0.1,3.9-0.3,3.9-0.4c0-0.2-2.8-0.1-3.9,0c0.5-0.2,2.4-0.8,2.4-1c0-0.2-3.3,0.9-3.7,1
	c-2.9-2.4-5.7-3.4-8.2-3.5c-1.3,0.3-2.6,0.8-3.8,1.3c2.9-0.6,6.2-0.4,9.7,1.5C18.9,6.5,14,7.5,10.5,9.8c-2.2,2.1-3.7,4.6-4.6,7.5
	c3-6.3,9.7-10.4,18.5-8.4C11.9,8.5,6.4,17,5.3,24.8c0.4,2.7,1.4,5.2,3,7.4c-2.8-8.8,1.4-22,16.3-22.8c-15.9,3.2-17.2,20-12.3,26.7
	c1.4,1,3.1,1.9,4.8,2.5c-7.2-4.9-6.6-24.4,8-28.7C12,16.1,12.4,35.4,20.7,39.5c0.6,0.1,1.1,0.1,1.6,0.1c1.1,0,2.1-0.1,3.1-0.3
	c-8.6-3-12.3-22.9,1.1-29.4l0.4,0.4c1.7,1.3,5.1,4.8,5.3,4.7s-3-3.3-4.2-4.6c1.6,0.7,5,2.6,5.1,2.5c0.1-0.1-3.3-2.2-5.1-3.1
	c1.8,0.3,5.1,1,5.1,0.9C33.3,10.5,30.2,9.8,28.2,9.4z"/>
</svg>
